<svg width="120" height="120" viewBox="0 0 120 120" fill="none" xmlns="http://www.w3.org/2000/svg">
<rect width="120" height="120" rx="23" fill="#DCE000"/>
<path d="M31.4692 80H38.6785L50.539 46.5698V40H26.5273V46.9767H43.6785L31.4692 80Z" fill="#1B1B1E"/>
<path d="M59.2604 80H66.4697L78.3301 46.5698V40H54.3185V46.9767H71.4697L59.2604 80Z" fill="#1B1B1E"/>
<path d="M93.8191 60C96.6213 60 97.4729 58.1044 97.4729 55.2198C97.4729 52.3352 96.6213 50.467 93.8191 50.467C91.0444 50.467 90.1652 52.3352 90.1652 55.2198C90.1652 58.1044 91.0444 60 93.8191 60ZM80.3301 44.7527C80.3301 47.6374 81.2092 49.533 83.9839 49.533C86.7861 49.533 87.6378 47.6374 87.6378 44.7527C87.6378 41.8681 86.7861 40 83.9839 40C81.2092 40 80.3301 41.8681 80.3301 44.7527ZM81.896 59.6978H84.4784L96.0718 40.467H93.4894L81.896 59.6978ZM82.7477 44.7527C82.7477 43.1319 82.8576 42.0879 83.9839 42.0879C85.1103 42.0879 85.2202 43.1319 85.2202 44.7527C85.2202 46.3736 85.1103 47.4451 83.9839 47.4451C82.8576 47.4451 82.7477 46.3736 82.7477 44.7527ZM92.5828 55.2198C92.5828 53.5989 92.6927 52.5549 93.8191 52.5549C94.9455 52.5549 95.0554 53.5989 95.0554 55.2198C95.0554 56.8407 94.9455 57.9121 93.8191 57.9121C92.6927 57.9121 92.5828 56.8407 92.5828 55.2198Z" fill="#1B1B1E"/>
</svg>
