<svg width="120" height="120" viewBox="0 0 120 120" fill="none" xmlns="http://www.w3.org/2000/svg">
<path d="M60 -0.00029254C49.4584 -0.000292079 39.1028 2.77703 29.976 8.05205C20.8491 13.3271 13.2731 20.9136 8.01077 30.0478C2.74841 39.1819 -0.014559 49.5413 5.63681e-05 60.0829C0.0146717 70.6245 2.80635 80.9762 8.09402 90.0957L60 59.9997L60 -0.00029254Z" fill="#1B1B1E"/>
<path d="M8.09375 90.096C13.3743 99.2033 20.9582 106.761 30.0838 112.01C39.2094 117.259 49.5554 120.015 60.0829 120C70.6104 119.985 80.9488 117.201 90.0597 111.927C99.1707 106.653 106.734 99.0739 111.989 89.952C117.244 80.83 120.007 70.4859 120 59.9584C119.992 49.4309 117.215 39.0906 111.947 29.976C106.679 20.8613 99.106 13.2932 89.9877 8.03155C80.8694 2.76991 70.5272 -2.72905e-06 59.9997 -2.26888e-06L59.9997 60L8.09375 90.096Z" fill="#DCE000"/>
</svg>
