<svg width="300" height="300" viewBox="0 0 300 300" fill="none" xmlns="http://www.w3.org/2000/svg">
<rect width="300" height="300" fill="#1B1B1E"/>
<g clip-path="url(#clip0_1419_28221)">
<path d="M204.917 25.467H95.9504C87.3545 25.467 80.3838 32.4377 80.3838 41.0336V258.966C80.3838 267.562 87.3545 274.533 95.9504 274.533H204.917C213.513 274.533 220.483 267.562 220.483 258.966V41.0336C220.483 32.4377 213.513 25.467 204.917 25.467ZM212.7 258.966C212.7 263.266 209.216 266.75 204.917 266.75H95.9504C91.6509 266.75 88.1671 263.266 88.1671 258.966V41.0336C88.1671 36.7341 91.6509 33.2503 95.9504 33.2503H204.917C209.216 33.2503 212.7 36.7341 212.7 41.0336V258.966Z" fill="#DCE000" stroke="#1B1B1E" stroke-width="1.25" stroke-miterlimit="10"/>
<path d="M181.567 91.6251C190.164 91.6251 197.133 84.6557 197.133 76.0585C197.133 67.4613 190.164 60.4919 181.567 60.4919C172.969 60.4919 166 67.4613 166 76.0585C166 84.6557 172.969 91.6251 181.567 91.6251Z" fill="#1B1B1E" stroke="#DCE000" stroke-width="1.25" stroke-miterlimit="10"/>
<path d="M176.377 81.2484H184.16C185.592 81.2484 186.754 80.0871 186.754 78.655C186.754 77.2229 185.592 76.0616 184.16 76.0616H178.97C177.538 76.0616 176.377 74.9003 176.377 73.4682C176.377 72.0361 177.538 70.8748 178.97 70.8748H186.754" fill="#1B1B1E"/>
<path d="M176.377 81.2484H184.16C185.592 81.2484 186.754 80.0871 186.754 78.655C186.754 77.2229 185.592 76.0616 184.16 76.0616H178.97C177.538 76.0616 176.377 74.9003 176.377 73.4682C176.377 72.0361 177.538 70.8748 178.97 70.8748H186.754" stroke="#DCE000" stroke-width="1.25" stroke-miterlimit="10"/>
<path d="M181.566 68.2752V70.8686" stroke="#DCE000" stroke-width="1.25" stroke-miterlimit="10"/>
<path d="M181.566 81.2484V83.8418" stroke="#DCE000" stroke-width="1.25" stroke-miterlimit="10"/>
<path d="M158.217 153.892H197.133" stroke="#DCE000" stroke-width="1.25" stroke-miterlimit="10"/>
<path d="M158.217 161.675H197.133" stroke="#DCE000" stroke-width="1.25" stroke-miterlimit="10"/>
<path d="M158.217 169.458H197.133" stroke="#DCE000" stroke-width="1.25" stroke-miterlimit="10"/>
<path d="M146.542 56.6002H45.3585C43.2092 56.6002 41.4668 58.3426 41.4668 60.4919V114.975C41.4668 117.124 43.2092 118.867 45.3585 118.867H146.542C148.691 118.867 150.433 117.124 150.433 114.975V60.4919C150.433 58.3426 148.691 56.6002 146.542 56.6002Z" fill="#1B1B1E" stroke="#DCE000" stroke-width="1.25" stroke-miterlimit="10"/>
<path d="M72.6004 64.3835C59.705 64.3835 49.2505 74.8381 49.2505 87.7335C49.2505 100.629 59.705 111.083 72.6004 111.083C85.4958 111.083 95.9504 100.629 95.9504 87.7335C95.9504 74.8381 85.4958 64.3835 72.6004 64.3835ZM72.6004 99.4085C66.1527 99.4085 60.9255 94.1812 60.9255 87.7335C60.9255 81.2858 66.1527 76.0585 72.6004 76.0585C79.0481 76.0585 84.2754 81.2858 84.2754 87.7335C84.2754 94.1812 79.0481 99.4085 72.6004 99.4085Z" fill="#1B1B1E" stroke="#DCE000" stroke-width="1.25" stroke-miterlimit="10"/>
<path d="M111.517 68.2752L103.733 77.17H105.956V83.8418H110.405V79.3929H112.628V83.8418H117.077V77.17H119.3L111.517 68.2752Z" fill="#DCE000" stroke="#1B1B1E" stroke-width="1.25" stroke-miterlimit="10"/>
<path d="M103.733 91.6251H142.65" stroke="#DCE000" stroke-width="1.25" stroke-miterlimit="10"/>
<path d="M103.733 99.4084H142.65" stroke="#DCE000" stroke-width="1.25" stroke-miterlimit="10"/>
<path d="M103.733 107.192H142.65" stroke="#DCE000" stroke-width="1.25" stroke-miterlimit="10"/>
<path d="M255.508 181.133H154.325C152.176 181.133 150.434 182.876 150.434 185.025V239.508C150.434 241.657 152.176 243.4 154.325 243.4H255.508C257.658 243.4 259.4 241.657 259.4 239.508V185.025C259.4 182.876 257.658 181.133 255.508 181.133Z" fill="#1B1B1E" stroke="#DCE000" stroke-width="1.25" stroke-miterlimit="10"/>
<path d="M212.7 216.158H251.616" stroke="#DCE000" stroke-width="1.25" stroke-miterlimit="10"/>
<path d="M212.7 223.941H251.616" stroke="#DCE000" stroke-width="1.25" stroke-miterlimit="10"/>
<path d="M212.7 232H251.616" stroke="#DCE000" stroke-width="1.25" stroke-miterlimit="10"/>
<path d="M169.892 99.4084H193.242" stroke="#DCE000" stroke-width="1.25" stroke-miterlimit="10"/>
<path d="M169.892 107.192H193.242" stroke="#DCE000" stroke-width="1.25" stroke-miterlimit="10"/>
<path d="M119.3 220.05C127.897 220.05 134.867 213.08 134.867 204.483C134.867 195.886 127.897 188.917 119.3 188.917C110.703 188.917 103.733 195.886 103.733 204.483C103.733 213.08 110.703 220.05 119.3 220.05Z" fill="#1B1B1E" stroke="#DCE000" stroke-width="1.25" stroke-miterlimit="10"/>
<path d="M114.11 209.673H121.894C123.326 209.673 124.487 208.512 124.487 207.08C124.487 205.648 123.326 204.486 121.894 204.486H116.704C115.272 204.486 114.11 203.325 114.11 201.893C114.11 200.461 115.272 199.299 116.704 199.299H124.487" fill="#1B1B1E"/>
<path d="M114.11 209.673H121.894C123.326 209.673 124.487 208.512 124.487 207.08C124.487 205.648 123.326 204.486 121.894 204.486H116.704C115.272 204.486 114.11 203.325 114.11 201.893C114.11 200.461 115.272 199.299 116.704 199.299H124.487" stroke="#DCE000" stroke-width="1.25" stroke-miterlimit="10"/>
<path d="M119.3 196.7V199.293" stroke="#DCE000" stroke-width="1.25" stroke-miterlimit="10"/>
<path d="M119.3 209.673V212.267" stroke="#DCE000" stroke-width="1.25" stroke-miterlimit="10"/>
<path d="M107.625 227.833H130.975" stroke="#DCE000" stroke-width="1.25" stroke-miterlimit="10"/>
<path d="M107.625 235.616H130.975" stroke="#DCE000" stroke-width="1.25" stroke-miterlimit="10"/>
<path d="M72.6004 64.3835V76.0585C79.0481 76.0585 84.2754 81.2858 84.2754 87.7335C84.2754 94.1812 79.0481 99.4085 72.6004 99.4085C66.1527 99.4085 60.9255 94.1812 60.9255 87.7335H49.2505C49.2505 100.629 59.705 111.083 72.6004 111.083C85.4958 111.083 95.9504 100.629 95.9504 87.7335C95.9504 74.8381 85.4958 64.3835 72.6004 64.3835Z" fill="#DCE000" stroke="#DCE000" stroke-width="1.25" stroke-miterlimit="10"/>
<path d="M123.192 173.35C136.087 173.35 146.542 162.895 146.542 150C146.542 137.105 136.087 126.65 123.192 126.65C110.296 126.65 99.8418 137.105 99.8418 150C99.8418 162.895 110.296 173.35 123.192 173.35ZM123.192 161.675C116.744 161.675 111.517 156.448 111.517 150C111.517 143.552 116.744 138.325 123.192 138.325C129.639 138.325 134.867 143.552 134.867 150C134.867 156.448 129.639 161.675 123.192 161.675Z" fill="#1B1B1E" stroke="#DCE000" stroke-width="1.25" stroke-miterlimit="10"/>
<path d="M123.192 173.35C116.183 173.35 109.904 170.258 105.623 165.374L114.406 157.687C116.545 160.131 119.686 161.675 123.188 161.675C129.636 161.675 134.863 156.448 134.863 150C134.863 143.552 129.636 138.325 123.188 138.325V126.65C136.084 126.65 146.538 137.105 146.538 150C146.538 162.895 136.084 173.35 123.188 173.35H123.192Z" fill="#DCE000" stroke="#DCE000" stroke-width="1.25" stroke-miterlimit="10"/>
<path d="M165.056 228.776C174.175 237.895 188.961 237.895 198.08 228.776C207.198 219.658 207.198 204.872 198.08 195.753C188.961 186.635 174.175 186.635 165.056 195.753C155.938 204.872 155.938 219.658 165.056 228.776ZM189.823 204.01C194.381 208.568 194.381 215.962 189.823 220.52C185.265 225.078 177.871 225.078 173.313 220.52C168.755 215.962 168.755 208.568 173.313 204.01C177.871 199.452 185.265 199.452 189.823 204.01V204.01Z" fill="#1B1B1E" stroke="#DCE000" stroke-width="1.25" stroke-miterlimit="10"/>
<path d="M181.566 200.592C184.555 200.592 187.541 201.731 189.823 204.01C194.381 208.568 194.381 215.962 189.823 220.52L198.079 228.776C207.198 219.658 207.198 204.872 198.079 195.753C193.522 191.196 187.544 188.913 181.57 188.913V200.588L181.566 200.592Z" fill="#DCE000" stroke="#DCE000" stroke-width="1.25" stroke-miterlimit="10"/>
<path d="M172.538 138.325L174.589 135.535L171.289 134.483L171.308 131.021L168.02 132.105L166 129.296L163.979 132.105L160.692 131.021L160.71 134.483L157.41 135.535L159.462 138.325L157.41 141.115L160.71 142.167L160.692 145.629L163.979 144.545L166 147.354L168.02 144.545L171.308 145.629L171.289 142.167L174.589 141.115L172.538 138.325Z" fill="#DCE000"/>
<path d="M172.538 138.325L174.589 135.535L171.289 134.483L171.308 131.021L168.02 132.105L166 129.296L163.979 132.105L160.692 131.021L160.71 134.483L157.41 135.535L159.462 138.325L157.41 141.115L160.71 142.167L160.692 145.629L163.979 144.545L166 147.354L168.02 144.545L171.308 145.629L171.289 142.167L174.589 141.115L172.538 138.325Z" stroke="#1B1B1E" stroke-width="1.25" stroke-miterlimit="10"/>
<path d="M166 142.217C168.149 142.217 169.892 140.474 169.892 138.325C169.892 136.176 168.149 134.433 166 134.433C163.851 134.433 162.108 136.176 162.108 138.325C162.108 140.474 163.851 142.217 166 142.217Z" fill="#DCE000" stroke="#1B1B1E" stroke-width="1.25" stroke-miterlimit="10"/>
<path d="M214.86 201.89C213.665 201.89 212.7 202.858 212.7 204.05V206.211H232.158V204.05C232.158 202.855 231.19 201.89 229.997 201.89H227.837L225.676 197.565H219.191L217.03 201.89H214.87H214.86Z" fill="#DCE000" stroke="#1B1B1E" stroke-width="1.25" stroke-miterlimit="10"/>
<path d="M217.024 208.375C218.218 208.375 219.185 207.407 219.185 206.214C219.185 205.021 218.218 204.054 217.024 204.054C215.831 204.054 214.864 205.021 214.864 206.214C214.864 207.407 215.831 208.375 217.024 208.375Z" fill="#DCE000" stroke="#1B1B1E" stroke-width="1.25" stroke-miterlimit="10"/>
<path d="M227.833 208.375C229.027 208.375 229.994 207.407 229.994 206.214C229.994 205.021 229.027 204.054 227.833 204.054C226.64 204.054 225.673 205.021 225.673 206.214C225.673 207.407 226.64 208.375 227.833 208.375Z" fill="#DCE000" stroke="#1B1B1E" stroke-width="1.25" stroke-miterlimit="10"/>
<path d="M217.024 201.89H227.834" stroke="#1B1B1E" stroke-width="1.25" stroke-miterlimit="10"/>
</g>
<defs>
<clipPath id="clip0_1419_28221">
<rect width="218.867" height="250" fill="white" transform="translate(41 25)"/>
</clipPath>
</defs>
</svg>
