<svg width="300" height="300" viewBox="0 0 300 300" fill="none" xmlns="http://www.w3.org/2000/svg">
<rect width="300" height="300" fill="#1B1B1E"/>
<g clip-path="url(#clip0_1435_24055)">
<path d="M146.11 87.7334C154.707 87.7334 161.676 80.7639 161.676 72.1667C161.676 63.5695 154.707 56.6001 146.11 56.6001C137.512 56.6001 130.543 63.5695 130.543 72.1667C130.543 80.7639 137.512 87.7334 146.11 87.7334Z" fill="#1B1B1E" stroke="#DCE000" stroke-width="1.25" stroke-miterlimit="10"/>
<path d="M87.7344 165.567L103.301 150L118.868 134.434L134.434 150L150.001 134.434L165.568 118.867L181.134 134.434L196.701 118.867L212.267 103.3V266.75H87.7344V165.567Z" fill="#DCE000" stroke="#1B1B1E" stroke-width="1.25" stroke-miterlimit="10"/>
<path d="M204.482 25.4668H95.5158C86.92 25.4668 79.9492 32.4375 79.9492 41.0334V258.966C79.9492 267.562 86.92 274.533 95.5158 274.533H204.482C213.078 274.533 220.049 267.562 220.049 258.966V41.0334C220.049 32.4375 213.078 25.4668 204.482 25.4668ZM212.266 258.966C212.266 263.266 208.782 266.75 204.482 266.75H95.5158C91.2163 266.75 87.7325 263.266 87.7325 258.966V41.0334C87.7325 36.7339 91.2163 33.2501 95.5158 33.2501H204.482C208.782 33.2501 212.266 36.7339 212.266 41.0334V258.966Z" fill="#DCE000" stroke="#1B1B1E" stroke-width="1.25" stroke-miterlimit="10"/>
<path d="M239.508 181.133H177.241C175.092 181.133 173.35 182.876 173.35 185.025V247.291C173.35 249.441 175.092 251.183 177.241 251.183H239.508C241.657 251.183 243.399 249.441 243.399 247.291V185.025C243.399 182.876 241.657 181.133 239.508 181.133Z" fill="#1B1B1E" stroke="#DCE000" stroke-width="1.25" stroke-miterlimit="10"/>
<path d="M126.65 181.133H111.083C108.934 181.133 107.191 182.876 107.191 185.025V192.808C107.191 194.958 108.934 196.7 111.083 196.7H126.65C128.799 196.7 130.541 194.958 130.541 192.808V185.025C130.541 182.876 128.799 181.133 126.65 181.133Z" fill="#1B1B1E" stroke="#DCE000" stroke-width="1.25" stroke-miterlimit="10"/>
<path d="M157.782 181.133H142.216C140.067 181.133 138.324 182.876 138.324 185.025V192.808C138.324 194.958 140.067 196.7 142.216 196.7H157.782C159.932 196.7 161.674 194.958 161.674 192.808V185.025C161.674 182.876 159.932 181.133 157.782 181.133Z" fill="#1B1B1E" stroke="#DCE000" stroke-width="1.25" stroke-miterlimit="10"/>
<path d="M114.975 56.6001H29.3585C27.2092 56.6001 25.4668 58.3425 25.4668 60.4918V114.975C25.4668 117.124 27.2092 118.867 29.3585 118.867H114.975C117.124 118.867 118.867 117.124 118.867 114.975V60.4918C118.867 58.3425 117.124 56.6001 114.975 56.6001Z" fill="#1B1B1E" stroke="#DCE000" stroke-width="1.25" stroke-miterlimit="10"/>
<path d="M118.866 138.325C121.016 138.325 122.758 136.582 122.758 134.433C122.758 132.284 121.016 130.542 118.866 130.542C116.717 130.542 114.975 132.284 114.975 134.433C114.975 136.582 116.717 138.325 118.866 138.325Z" fill="#DCE000" stroke="#1B1B1E" stroke-width="1.25" stroke-miterlimit="10"/>
<path d="M134.435 153.892C136.584 153.892 138.326 152.149 138.326 150C138.326 147.851 136.584 146.108 134.435 146.108C132.285 146.108 130.543 147.851 130.543 150C130.543 152.149 132.285 153.892 134.435 153.892Z" fill="#DCE000" stroke="#1B1B1E" stroke-width="1.25" stroke-miterlimit="10"/>
<path d="M150.001 138.325C152.15 138.325 153.893 136.582 153.893 134.433C153.893 132.284 152.15 130.542 150.001 130.542C147.852 130.542 146.109 132.284 146.109 134.433C146.109 136.582 147.852 138.325 150.001 138.325Z" fill="#DCE000" stroke="#1B1B1E" stroke-width="1.25" stroke-miterlimit="10"/>
<path d="M165.567 122.758C167.717 122.758 169.459 121.016 169.459 118.867C169.459 116.717 167.717 114.975 165.567 114.975C163.418 114.975 161.676 116.717 161.676 118.867C161.676 121.016 163.418 122.758 165.567 122.758Z" fill="#DCE000" stroke="#1B1B1E" stroke-width="1.25" stroke-miterlimit="10"/>
<path d="M181.134 138.325C183.283 138.325 185.026 136.582 185.026 134.433C185.026 132.284 183.283 130.542 181.134 130.542C178.985 130.542 177.242 132.284 177.242 134.433C177.242 136.582 178.985 138.325 181.134 138.325Z" fill="#DCE000" stroke="#1B1B1E" stroke-width="1.25" stroke-miterlimit="10"/>
<path d="M196.7 122.758C198.85 122.758 200.592 121.016 200.592 118.867C200.592 116.717 198.85 114.975 196.7 114.975C194.551 114.975 192.809 116.717 192.809 118.867C192.809 121.016 194.551 122.758 196.7 122.758Z" fill="#DCE000" stroke="#1B1B1E" stroke-width="1.25" stroke-miterlimit="10"/>
<path d="M103.3 153.892C105.449 153.892 107.192 152.149 107.192 150C107.192 147.851 105.449 146.108 103.3 146.108C101.151 146.108 99.4082 147.851 99.4082 150C99.4082 152.149 101.151 153.892 103.3 153.892Z" fill="#DCE000" stroke="#1B1B1E" stroke-width="1.25" stroke-miterlimit="10"/>
<path d="M56.5999 64.3838C43.7045 64.3838 33.25 74.8383 33.25 87.7337C33.25 100.629 43.7045 111.084 56.5999 111.084C69.4953 111.084 79.9499 100.629 79.9499 87.7337C79.9499 74.8383 69.4953 64.3838 56.5999 64.3838Z" fill="#DCE000" stroke="#1B1B1E" stroke-width="1.25" stroke-miterlimit="10"/>
<path d="M140.918 77.357H148.701C150.133 77.357 151.295 76.1957 151.295 74.7636C151.295 73.3315 150.133 72.1702 148.701 72.1702H143.511C142.079 72.1702 140.918 71.0089 140.918 69.5768C140.918 68.1447 142.079 66.9834 143.511 66.9834H151.295" fill="#1B1B1E"/>
<path d="M140.918 77.357H148.701C150.133 77.357 151.295 76.1957 151.295 74.7636C151.295 73.3315 150.133 72.1702 148.701 72.1702H143.511C142.079 72.1702 140.918 71.0089 140.918 69.5768C140.918 68.1447 142.079 66.9834 143.511 66.9834H151.295" stroke="#DCE000" stroke-width="1.25" stroke-miterlimit="10"/>
<path d="M146.109 64.3838V66.9772" stroke="#DCE000" stroke-width="1.25" stroke-miterlimit="10"/>
<path d="M146.109 77.3569V79.9503" stroke="#DCE000" stroke-width="1.25" stroke-miterlimit="10"/>
<path d="M200.592 216.158H192.809V243.4H200.592V216.158Z" fill="#DCE000" stroke="#1B1B1E" stroke-width="1.25" stroke-miterlimit="10"/>
<path d="M188.916 223.941H181.133V243.4H188.916V223.941Z" fill="#DCE000" stroke="#1B1B1E" stroke-width="1.25" stroke-miterlimit="10"/>
<path d="M212.266 204.483H204.482V243.4H212.266V204.483Z" fill="#DCE000" stroke="#1B1B1E" stroke-width="1.25" stroke-miterlimit="10"/>
<path d="M235.617 204.483H227.834V243.4H235.617V204.483Z" fill="#DCE000" stroke="#1B1B1E" stroke-width="1.25" stroke-miterlimit="10"/>
<path d="M223.942 192.808H216.158V243.4H223.942V192.808Z" fill="#DCE000" stroke="#1B1B1E" stroke-width="1.25" stroke-miterlimit="10"/>
<path d="M169.457 68.2754H200.59" stroke="#DCE000" stroke-width="1.25" stroke-miterlimit="10"/>
<path d="M169.457 76.0586H200.59" stroke="#DCE000" stroke-width="1.25" stroke-miterlimit="10"/>
<path d="M87.7344 72.167H107.193" stroke="#DCE000" stroke-width="1.25" stroke-miterlimit="10"/>
<path d="M87.7344 79.9502H107.193" stroke="#DCE000" stroke-width="1.25" stroke-miterlimit="10"/>
<path d="M87.7344 87.7334H107.193" stroke="#DCE000" stroke-width="1.25" stroke-miterlimit="10"/>
<path d="M87.7344 95.5166H107.193" stroke="#DCE000" stroke-width="1.25" stroke-miterlimit="10"/>
<path d="M87.7344 103.3H107.193" stroke="#DCE000" stroke-width="1.25" stroke-miterlimit="10"/>
<path d="M107.191 204.483H130.541" stroke="#1B1B1E" stroke-width="1.25" stroke-miterlimit="10"/>
<path d="M107.191 212.267H130.541" stroke="#1B1B1E" stroke-width="1.25" stroke-miterlimit="10"/>
<path d="M126.65 220.05H111.083C108.934 220.05 107.191 221.792 107.191 223.941V231.725C107.191 233.874 108.934 235.616 111.083 235.616H126.65C128.799 235.616 130.541 233.874 130.541 231.725V223.941C130.541 221.792 128.799 220.05 126.65 220.05Z" fill="#1B1B1E" stroke="#DCE000" stroke-width="1.25" stroke-miterlimit="10"/>
<path d="M157.782 220.05H142.216C140.067 220.05 138.324 221.792 138.324 223.941V231.725C138.324 233.874 140.067 235.616 142.216 235.616H157.782C159.932 235.616 161.674 233.874 161.674 231.725V223.941C161.674 221.792 159.932 220.05 157.782 220.05Z" fill="#1B1B1E" stroke="#DCE000" stroke-width="1.25" stroke-miterlimit="10"/>
<path d="M107.191 243.4H130.541" stroke="#1B1B1E" stroke-width="1.25" stroke-miterlimit="10"/>
<path d="M107.191 251.183H130.541" stroke="#1B1B1E" stroke-width="1.25" stroke-miterlimit="10"/>
<path d="M138.324 204.483H161.674" stroke="#1B1B1E" stroke-width="1.25" stroke-miterlimit="10"/>
<path d="M138.324 212.267H161.674" stroke="#1B1B1E" stroke-width="1.25" stroke-miterlimit="10"/>
<path d="M138.324 243.4H161.674" stroke="#1B1B1E" stroke-width="1.25" stroke-miterlimit="10"/>
<path d="M138.324 251.183H161.674" stroke="#1B1B1E" stroke-width="1.25" stroke-miterlimit="10"/>
<path d="M56.5996 64.3838V87.7337L73.1096 104.244C77.3344 100.019 79.9495 94.1814 79.9495 87.7337C79.9495 74.8383 69.495 64.3838 56.5996 64.3838Z" fill="#DCE000" stroke="#1B1B1E" stroke-width="1.25" stroke-miterlimit="10"/>
<path d="M56.5996 87.7334V111.083" stroke="#1B1B1E" stroke-width="1.25" stroke-miterlimit="10"/>
<path d="M79.9495 87.7334H56.5996" stroke="#1B1B1E" stroke-width="1.25" stroke-miterlimit="10"/>
</g>
<defs>
<clipPath id="clip0_1435_24055">
<rect width="218.867" height="250" fill="white" transform="translate(25 25)"/>
</clipPath>
</defs>
</svg>
