<svg width="300" height="300" viewBox="0 0 300 300" fill="none" xmlns="http://www.w3.org/2000/svg">
<rect width="300" height="300" fill="#1B1B1E"/>
<g clip-path="url(#clip0_1435_22926)">
<path d="M204.482 25.4668H95.5158C86.92 25.4668 79.9492 32.4375 79.9492 41.0334V258.966C79.9492 267.562 86.92 274.533 95.5158 274.533H204.482C213.078 274.533 220.049 267.562 220.049 258.966V41.0334C220.049 32.4375 213.078 25.4668 204.482 25.4668ZM212.266 258.966C212.266 263.266 208.782 266.75 204.482 266.75H95.5158C91.2163 266.75 87.7325 263.266 87.7325 258.966V41.0334C87.7325 36.7339 91.2163 33.2501 95.5158 33.2501H204.482C208.782 33.2501 212.266 36.7339 212.266 41.0334V258.966Z" fill="#DCE000" stroke="#1B1B1E" stroke-width="1.25" stroke-miterlimit="10"/>
<path d="M150.001 56.6001C124.21 56.6001 103.301 77.5092 103.301 103.3C103.301 129.091 124.21 150 150.001 150C175.791 150 196.701 129.091 196.701 103.3C196.701 77.5092 175.791 56.6001 150.001 56.6001ZM150.001 126.65C137.105 126.65 126.651 116.195 126.651 103.3C126.651 90.4046 137.105 79.95 150.001 79.95C162.896 79.95 173.351 90.4046 173.351 103.3C173.351 116.195 162.896 126.65 150.001 126.65Z" fill="#DCE000" stroke="#DCE000" stroke-width="1.25" stroke-miterlimit="10"/>
<path d="M126.65 103.3C126.65 96.8525 129.262 91.015 133.49 86.7902L116.98 70.2803C108.53 78.7298 103.303 90.4048 103.303 103.303C103.303 129.094 124.212 150.003 150.003 150.003V126.653C137.107 126.653 126.653 116.199 126.653 103.303L126.65 103.3Z" fill="#1B1B1E" stroke="#DCE000" stroke-width="1.25" stroke-miterlimit="10"/>
<path d="M114.975 169.458H29.3585C27.2092 169.458 25.4668 171.201 25.4668 173.35V188.917C25.4668 191.066 27.2092 192.808 29.3585 192.808H114.975C117.124 192.808 118.867 191.066 118.867 188.917V173.35C118.867 171.201 117.124 169.458 114.975 169.458Z" fill="#1B1B1E" stroke="#DCE000" stroke-width="1.25" stroke-miterlimit="10"/>
<path d="M150 196.7C158.597 196.7 165.567 189.73 165.567 181.133C165.567 172.536 158.597 165.566 150 165.566C141.403 165.566 134.434 172.536 134.434 181.133C134.434 189.73 141.403 196.7 150 196.7Z" fill="#DCE000" stroke="#DCE000" stroke-width="1.25" stroke-miterlimit="10"/>
<path d="M144.811 186.323H152.594C154.026 186.323 155.187 185.162 155.187 183.73C155.187 182.298 154.026 181.137 152.594 181.137H147.404C145.972 181.137 144.811 179.975 144.811 178.543C144.811 177.111 145.972 175.95 147.404 175.95H155.187" stroke="#1B1B1E" stroke-width="1.25" stroke-miterlimit="10"/>
<path d="M150 173.35V175.943" stroke="#1B1B1E" stroke-width="1.25" stroke-miterlimit="10"/>
<path d="M150 186.323V188.917" stroke="#1B1B1E" stroke-width="1.25" stroke-miterlimit="10"/>
<path d="M60.4922 181.133H111.084" stroke="#DCE000" stroke-width="1.25" stroke-miterlimit="10"/>
<path d="M29.3585 169.458C27.2103 169.458 25.4668 171.202 25.4668 173.35V188.917C25.4668 191.065 27.2103 192.808 29.3585 192.808H52.7084V169.458H29.3585Z" fill="#DCE000" stroke="#DCE000" stroke-width="1.25" stroke-miterlimit="10"/>
<path d="M33.8984 186.323H41.6818C43.1139 186.323 44.2752 185.162 44.2752 183.73C44.2752 182.298 43.1139 181.137 41.6818 181.137H36.4918C35.0597 181.137 33.8984 179.975 33.8984 178.543C33.8984 177.111 35.0597 175.95 36.4918 175.95H44.2752" stroke="#1B1B1E" stroke-width="1.25" stroke-miterlimit="10"/>
<path d="M39.0879 173.35V175.943" stroke="#1B1B1E" stroke-width="1.25" stroke-miterlimit="10"/>
<path d="M39.0879 186.323V188.917" stroke="#1B1B1E" stroke-width="1.25" stroke-miterlimit="10"/>
<path d="M114.975 200.591H29.3585C27.2092 200.591 25.4668 202.334 25.4668 204.483V220.05C25.4668 222.199 27.2092 223.941 29.3585 223.941H114.975C117.124 223.941 118.867 222.199 118.867 220.05V204.483C118.867 202.334 117.124 200.591 114.975 200.591Z" fill="#1B1B1E" stroke="#DCE000" stroke-width="1.25" stroke-miterlimit="10"/>
<path d="M60.4922 212.267H111.084" stroke="#DCE000" stroke-width="1.25" stroke-miterlimit="10"/>
<path d="M29.3585 200.591C27.2103 200.591 25.4668 202.335 25.4668 204.483V220.05C25.4668 222.198 27.2103 223.941 29.3585 223.941H52.7084V200.591H29.3585Z" fill="#DCE000" stroke="#DCE000" stroke-width="1.25" stroke-miterlimit="10"/>
<path d="M33.8984 217.457H41.6818C43.1139 217.457 44.2752 216.295 44.2752 214.863C44.2752 213.431 43.1139 212.27 41.6818 212.27H36.4918C35.0597 212.27 33.8984 211.109 33.8984 209.676C33.8984 208.244 35.0597 207.083 36.4918 207.083H44.2752" stroke="#1B1B1E" stroke-width="1.25" stroke-miterlimit="10"/>
<path d="M39.0879 204.483V207.077" stroke="#1B1B1E" stroke-width="1.25" stroke-miterlimit="10"/>
<path d="M39.0879 217.457V220.05" stroke="#1B1B1E" stroke-width="1.25" stroke-miterlimit="10"/>
<path d="M114.975 231.725H29.3585C27.2092 231.725 25.4668 233.467 25.4668 235.616V251.183C25.4668 253.332 27.2092 255.075 29.3585 255.075H114.975C117.124 255.075 118.867 253.332 118.867 251.183V235.616C118.867 233.467 117.124 231.725 114.975 231.725Z" fill="#1B1B1E" stroke="#DCE000" stroke-width="1.25" stroke-miterlimit="10"/>
<path d="M60.4922 243.4H111.084" stroke="#DCE000" stroke-width="1.25" stroke-miterlimit="10"/>
<path d="M29.3585 231.725C27.2103 231.725 25.4668 233.468 25.4668 235.616V251.183C25.4668 253.331 27.2103 255.075 29.3585 255.075H52.7084V231.725H29.3585Z" fill="#DCE000" stroke="#DCE000" stroke-width="1.25" stroke-miterlimit="10"/>
<path d="M33.8984 248.589H41.6818C43.1139 248.589 44.2752 247.428 44.2752 245.996C44.2752 244.564 43.1139 243.403 41.6818 243.403H36.4918C35.0597 243.403 33.8984 242.241 33.8984 240.809C33.8984 239.377 35.0597 238.216 36.4918 238.216H44.2752" stroke="#1B1B1E" stroke-width="1.25" stroke-miterlimit="10"/>
<path d="M39.0879 235.616V238.21" stroke="#1B1B1E" stroke-width="1.25" stroke-miterlimit="10"/>
<path d="M39.0879 248.589V251.183" stroke="#1B1B1E" stroke-width="1.25" stroke-miterlimit="10"/>
<path d="M134.434 212.267H165.567" stroke="#DCE000" stroke-width="1.25" stroke-miterlimit="10"/>
<path d="M134.434 223.941H165.567" stroke="#DCE000" stroke-width="1.25" stroke-miterlimit="10"/>
<path d="M134.434 235.616H165.567" stroke="#DCE000" stroke-width="1.25" stroke-miterlimit="10"/>
<path d="M134.434 247.292H165.567" stroke="#DCE000" stroke-width="1.25" stroke-miterlimit="10"/>
<path d="M173.35 103.3C173.35 109.748 170.738 115.585 166.51 119.81L183.02 136.32C191.469 127.87 196.697 116.195 196.697 103.297H173.347L173.35 103.3Z" fill="#1B1B1E" stroke="#DCE000" stroke-width="1.25" stroke-miterlimit="10"/>
<path d="M133.49 86.79C137.714 82.5652 143.552 79.95 150 79.95V56.6001C137.104 56.6001 125.429 61.8274 116.977 70.2769L133.487 86.7869L133.49 86.79Z" fill="#1B1B1E" stroke="#DCE000" stroke-width="1.25" stroke-miterlimit="10"/>
<path d="M173.349 103.3C173.349 105.526 173.031 107.674 172.449 109.713L194.912 116.133C196.073 112.055 196.699 107.752 196.699 103.3C196.699 98.8479 196.076 94.5453 194.912 90.4668L172.449 96.8865C173.031 98.9257 173.349 101.074 173.349 103.3V103.3Z" fill="#1B1B1E" stroke="#DCE000" stroke-width="1.25" stroke-miterlimit="10"/>
<path d="M270.641 169.458H185.024C182.875 169.458 181.133 171.201 181.133 173.35V220.05C181.133 222.199 182.875 223.942 185.024 223.942H270.641C272.79 223.942 274.533 222.199 274.533 220.05V173.35C274.533 171.201 272.79 169.458 270.641 169.458Z" fill="#1B1B1E" stroke="#DCE000" stroke-width="1.25" stroke-miterlimit="10"/>
<path d="M243.399 185.025L227.833 200.592L212.266 192.808L196.699 204.483L181.133 192.808V220.05C181.133 222.198 182.876 223.942 185.024 223.942H270.641C272.789 223.942 274.533 222.198 274.533 220.05V181.133L258.966 192.808L243.399 185.025Z" fill="#DCE000" stroke="#DCE000" stroke-width="1.25" stroke-miterlimit="10"/>
<path d="M196.7 208.375C198.85 208.375 200.592 206.632 200.592 204.483C200.592 202.334 198.85 200.591 196.7 200.591C194.551 200.591 192.809 202.334 192.809 204.483C192.809 206.632 194.551 208.375 196.7 208.375Z" fill="#1B1B1E" stroke="#DCE000" stroke-width="1.25" stroke-miterlimit="10"/>
<path d="M212.267 196.7C214.416 196.7 216.158 194.957 216.158 192.808C216.158 190.659 214.416 188.917 212.267 188.917C210.117 188.917 208.375 190.659 208.375 192.808C208.375 194.957 210.117 196.7 212.267 196.7Z" fill="#1B1B1E" stroke="#DCE000" stroke-width="1.25" stroke-miterlimit="10"/>
<path d="M227.833 204.483C229.982 204.483 231.725 202.741 231.725 200.591C231.725 198.442 229.982 196.7 227.833 196.7C225.684 196.7 223.941 198.442 223.941 200.591C223.941 202.741 225.684 204.483 227.833 204.483Z" fill="#1B1B1E" stroke="#DCE000" stroke-width="1.25" stroke-miterlimit="10"/>
<path d="M243.399 188.917C245.549 188.917 247.291 187.174 247.291 185.025C247.291 182.876 245.549 181.133 243.399 181.133C241.25 181.133 239.508 182.876 239.508 185.025C239.508 187.174 241.25 188.917 243.399 188.917Z" fill="#1B1B1E" stroke="#DCE000" stroke-width="1.25" stroke-miterlimit="10"/>
<path d="M258.966 196.7C261.115 196.7 262.858 194.957 262.858 192.808C262.858 190.659 261.115 188.917 258.966 188.917C256.817 188.917 255.074 190.659 255.074 192.808C255.074 194.957 256.817 196.7 258.966 196.7Z" fill="#1B1B1E" stroke="#DCE000" stroke-width="1.25" stroke-miterlimit="10"/>
</g>
<defs>
<clipPath id="clip0_1435_22926">
<rect width="250" height="250" fill="white" transform="translate(25 25)"/>
</clipPath>
</defs>
</svg>
